<?xml version="1.0" encoding="utf-8"?>
<!-- Generator: Adobe Illustrator 19.1.0, SVG Export Plug-In . SVG Version: 6.00 Build 0)  -->
<svg version="1.1" id="Ebene_1" xmlns="http://www.w3.org/2000/svg" xmlns:xlink="http://www.w3.org/1999/xlink" x="0px" y="0px"
	 width="512px" height="512px" viewBox="-143 -6 512 512" style="enable-background:new -143 -6 512 512;" xml:space="preserve">
<style type="text/css">
	.st0{fill:#65C7EE;}
</style>
<path class="st0" d="M113,85.9c-50,0-90.4,40.5-90.4,90.4c0,49.9,39.6,108,90.4,195.1c50.9-87.1,90.4-145.1,90.4-195.1
	C203.4,126.4,163,85.9,113,85.9z M113,206.6c-17.9,0-32.4-14.5-32.4-32.4c0-17.9,14.5-32.4,32.4-32.4s32.4,14.5,32.4,32.4
	C145.4,192,130.9,206.6,113,206.6z M212,366.6c0,8.5-4.3,24.6-33,36.3c-36.9,15-95.1,15.1-132,0c-28.7-11.7-33-27.7-33-36.3
	c0-21.4,23.7-34.1,44.3-40.2c4,6.8,8.1,13.7,12.4,20.9l0.4,0.6c-69.6,17.2-13.1,42.1,42,42.1c55,0,111.5-24.8,42-42.1l0.4-0.6
	c4.3-7.2,8.4-14.1,12.4-20.9C188.4,332.5,212,345.1,212,366.6L212,366.6z"/>
</svg>
